<svg xmlns:dc="http://purl.org/dc/elements/1.1/" xmlns:cc="http://creativecommons.org/ns#" xmlns:rdf="http://www.w3.org/1999/02/22-rdf-syntax-ns#" xmlns:svg="http://www.w3.org/2000/svg" xmlns="http://www.w3.org/2000/svg" xmlns:sodipodi="http://sodipodi.sourceforge.net/DTD/sodipodi-0.dtd" xmlns:inkscape="http://www.inkscape.org/namespaces/inkscape" version="1.1" id="レイヤー_1" x="0px" y="0px" viewBox="-6.75736408434168 -6.75736428492528 328.41240234375 351.38292236328124" enable-background="new 0 0 1502.681 337.868" xml:space="preserve" inkscape:version="0.91 r13725" sodipodi:docname="SOTETSU_logomark.svg"><metadata id="metadata27"><rdf:rdf><cc:work rdf:about=""><dc:format>image/svg+xml</dc:format><dc:type rdf:resource="http://purl.org/dc/dcmitype/StillImage"></dc:type><dc:title></dc:title></cc:work></rdf:rdf></metadata><defs id="defs25"></defs><sodipodi:namedview pagecolor="#ffffff" bordercolor="#666666" borderopacity="1" objecttolerance="10" gridtolerance="10" guidetolerance="10" inkscape:pageopacity="0" inkscape:pageshadow="2" inkscape:window-width="1920" inkscape:window-height="1017" id="namedview23" showgrid="false" fit-margin-top="0" fit-margin-left="0" fit-margin-right="0" fit-margin-bottom="0" inkscape:zoom="1.4187974" inkscape:cx="408.74629" inkscape:cy="90.539226" inkscape:window-x="-8" inkscape:window-y="-8" inkscape:window-maximized="1" inkscape:current-layer="レイヤー_1"></sodipodi:namedview><g id="g3364" transform="translate(8.3730603e-5,2.358795e-4)"><path d="M 216.087,107.219 C 172.189,94.025 130.561,79.327 135.59,53.428 141.637,22.32 221.06,30.442 266.98,50.671 l 0.529,-0.557 C 262.606,40.362 256.587,34.83 243.951,29.216 214.402,16.092 182.359,6.773 143.1,2.064 85.452,-4.847 41.817,5.603 33.487,33.299 c -10.658,35.441 39.719,70.409 90.694,88.297 55.14,19.323 113.57,21.427 151.283,41.418 20.411,10.824 29.229,33.701 13.18,62.009 l 0.877,0.142 c 17.108,-13.404 25.871,-27.822 25.355,-47.827 -0.752,-28.994 -26.023,-48.246 -98.789,-70.119" id="path19" inkscape:connector-curvature="0" style="fill:#ee7b35"></path><path d="m 277.568,182.923 c -0.404,14.714 -31.765,38.967 -69.045,56.395 -52.856,24.688 -104.626,25.579 -115.563,2.105 -10.936,-23.448 23.099,-62.457 75.997,-87.087 11.731,-5.461 23.406,-9.739 34.592,-12.859 -7.982,-1.658 -16.188,-3.33 -24.477,-5.113 -21.399,6.408 -44.039,15.923 -66.566,28.532 C 32.218,209.881 -15.971,276.46 4.844,313.629 c 20.827,37.196 102.759,30.872 183.074,-14.086 8.15,-4.568 15.952,-9.346 23.404,-14.293 49.556,-33.001 78.589,-77.473 66.942,-102.354 l -0.696,0.027" id="path21" inkscape:connector-curvature="0" style="fill:#2561a7"></path></g></svg>