<?xml version="1.0" encoding="utf-8"?>
<!-- Generator: Adobe Illustrator 15.0.2, SVG Export Plug-In . SVG Version: 6.00 Build 0)  -->
<!DOCTYPE svg PUBLIC "-//W3C//DTD SVG 1.1//EN" "http://www.w3.org/Graphics/SVG/1.1/DTD/svg11.dtd">
<svg version="1.1" id="レイヤー_1" xmlns="http://www.w3.org/2000/svg" xmlns:xlink="http://www.w3.org/1999/xlink" x="0px"
	 y="0px" width="1502.681px" height="337.868px" viewBox="0 0 1502.681 337.868" enable-background="new 0 0 1502.681 337.868"
	 xml:space="preserve">
<g>
	<path fill="#404848" d="M676.958,185.948c0-33.157-8.638-48.622-36.529-48.622c-27.891,0-36.556,15.465-36.556,48.622
		c0,33.102,8.665,48.578,36.556,48.578C668.32,234.526,676.958,219.049,676.958,185.948 M720.075,185.948
		c0,50.294-28.183,64.393-79.646,64.393c-51.49,0-79.66-14.099-79.66-64.393c0-50.307,28.17-64.406,79.66-64.406
		C691.893,121.542,720.075,135.641,720.075,185.948z"/>
	<path fill="#404848" d="M477.597,233.509c15.995-2.284,26.791-6.548,26.791-15.716c0-10.142-22.528-13.959-51.504-21.898
		c-25.76-7.021-51.549-17.4-51.549-39.568c0-22.762,24.605-34.798,71.163-34.798c20.326,0,41.071,2.73,60.282,7.815
		c0,2.898,0,11.995,0,16.551c-17.804-5.085-38.478-7.564-56.367-7.564c-26.568,0-34.647,5.377-34.647,13.792
		c0,10.588,27.807,15.073,54.737,22.749c27.041,7.719,48.69,18.183,48.69,39.358c0,33.101-59.013,36.111-77.167,36.111
		c-22.166,0-44.316-2.719-62.874-7.58c0-2.927,0-12.009,0-16.537C429.52,233.189,458.706,236.242,477.597,233.509"/>
	<path fill="#404848" d="M1255.926,233.509c15.966-2.284,26.775-6.548,26.775-15.716c0-10.142-22.565-13.959-51.504-21.898
		c-25.787-7.021-51.574-17.4-51.574-39.568c0-22.762,24.615-34.798,71.176-34.798c20.311,0,41.084,2.73,60.269,7.815
		c0,2.898,0,11.995,0,16.551c-17.775-5.085-38.451-7.564-56.368-7.564c-26.596,0-34.646,5.377-34.646,13.792
		c0,10.588,27.807,15.073,54.723,22.749c27.056,7.719,48.704,18.183,48.704,39.358c0,33.101-59.013,36.111-77.167,36.111
		c-22.164,0-44.302-2.719-62.857-7.58c0-2.927,0-12.009,0-16.537C1207.807,233.189,1237.005,236.242,1255.926,233.509"/>
	<path fill="#404848" d="M875.775,198.486c0,43.969,17.204,49.373,60.046,49.373h81.039v-17.553h-70.424
		c-26.346,0-28.685-7.551-28.685-26.137v-9.695h90.596v-18.182h-90.596v-8.231c0-18.601,2.339-26.166,28.685-26.166h67.163v-17.554
		h-77.778c-42.842,0-60.046,5.42-60.046,49.374V198.486"/>
	<polyline fill="#404848" points="773.658,247.859 815.716,247.859 815.716,142.245 866.872,142.245 866.872,124.342 
		722.515,124.342 722.515,142.245 773.658,142.245 773.658,247.859 	"/>
	<polyline fill="#404848" points="1077.951,247.859 1120.01,247.859 1120.01,142.245 1171.168,142.245 1171.168,124.342 
		1026.794,124.342 1026.794,142.245 1077.951,142.245 1077.951,247.859 	"/>
	<path fill="#404848" d="M1460.497,124.342v81.458c0,19.589-10.923,28.686-34.342,28.686c-23.766,0-34.356-8.846-34.356-28.686
		v-81.458h-42.197v71.635c0,41.043,15.271,54.363,76.734,54.363c61.05,0,76.345-13.32,76.345-54.363v-71.635H1460.497"/>
	<path fill="#EE7B35" d="M216.087,107.219c-43.898-13.194-85.526-27.892-80.497-53.791c6.047-31.108,85.47-22.986,131.39-2.757
		l0.529-0.557c-4.903-9.752-10.922-15.284-23.558-20.898C214.402,16.092,182.359,6.773,143.1,2.064
		C85.452-4.847,41.817,5.603,33.487,33.299c-10.658,35.441,39.719,70.409,90.694,88.297c55.14,19.323,113.57,21.427,151.283,41.418
		c20.411,10.824,29.229,33.701,13.18,62.009l0.877,0.142c17.108-13.404,25.871-27.822,25.355-47.827
		C314.124,148.344,288.853,129.092,216.087,107.219"/>
	<path fill="#2561A7" d="M277.568,182.923c-0.404,14.714-31.765,38.967-69.045,56.395c-52.856,24.688-104.626,25.579-115.563,2.105
		c-10.936-23.448,23.099-62.457,75.997-87.087c11.731-5.461,23.406-9.739,34.592-12.859c-7.982-1.658-16.188-3.33-24.477-5.113
		c-21.399,6.408-44.039,15.923-66.566,28.532C32.218,209.881-15.971,276.46,4.844,313.629
		c20.827,37.196,102.759,30.872,183.074-14.086c8.15-4.568,15.952-9.346,23.404-14.293c49.556-33.001,78.589-77.473,66.942-102.354
		L277.568,182.923"/>
</g>
</svg>
